<svg width="24" height="24" viewBox="0 0 24 24" fill="none" xmlns="http://www.w3.org/2000/svg">
    <path
        d="M9 3C6.24 3 4 5.24 4 8V9C4 9.55 4.45 10 5 10C4.45 10 4 10.45 4 11V12C4 12.55 4.45 13 5 13C4.45 13 4 13.45 4 14V15C4 15.55 4.45 16 5 16H6C6.55 16 7 16.45 7 17V18C7 19.66 8.34 21 10 21C10.55 21 11 20.55 11 20V3H9ZM20 9V8C20 5.24 17.76 3 15 3H13V20C13 20.55 13.45 21 14 21C15.66 21 17 19.66 17 18V17C17 16.45 17.45 16 18 16H19C19.55 16 20 15.55 20 15V14C20 13.45 19.55 13 19 13C19.55 13 20 12.55 20 12V11C20 10.45 19.55 10 19 10C19.55 10 20 9.55 20 9Z"
        fill="#000" />
</svg>